<svg width="100" height="33" viewBox="0 0 100 33" fill="none" xmlns="http://www.w3.org/2000/svg">
<path d="M64.472 30.4094H66.2704V29.8324H64.472V28.5347H66.395V27.9576H63.8379V32.355H66.4545V31.7789H64.472V30.4094Z" fill="#ffffff"/>
<path d="M68.7427 29.0298H68.7194C68.4507 29.0298 68.2238 29.0885 68.0462 29.2041C67.8686 29.3197 67.7338 29.4903 67.6473 29.7103C67.6454 29.715 67.6436 29.7206 67.6417 29.7252V29.1249H67.1387V32.356H67.7607V30.4309C67.7607 30.1811 67.8361 29.9797 67.9848 29.8306C68.1336 29.6814 68.3307 29.6059 68.5716 29.6059C68.8124 29.6059 68.9891 29.6786 69.1221 29.8203C69.255 29.963 69.3229 30.1569 69.3229 30.3946V32.3551H69.945V30.5139C69.945 30.0385 69.8464 29.6684 69.6511 29.4148C69.4549 29.1594 69.149 29.0298 68.7427 29.0298Z" fill="#ffffff"/>
<path d="M83.186 29.0298H83.1628C82.8941 29.0298 82.6672 29.0885 82.4896 29.2041C82.312 29.3197 82.1771 29.4903 82.0907 29.7103C82.0888 29.715 82.0869 29.7206 82.0851 29.7252V29.1249H81.582V32.356H82.2041V30.4309C82.2041 30.1811 82.2794 29.9797 82.4282 29.8306C82.577 29.6814 82.7741 29.6059 83.0149 29.6059C83.2558 29.6059 83.4324 29.6786 83.5654 29.8203C83.6984 29.963 83.7663 30.1569 83.7663 30.3946V32.3551H84.3883V30.5139C84.3883 30.0385 84.2898 29.6684 84.0945 29.4148C83.8983 29.1594 83.5924 29.0298 83.186 29.0298Z" fill="#ffffff"/>
<path d="M95.8286 29.0298H95.8054C95.5366 29.0298 95.3097 29.0885 95.1321 29.2041C94.9545 29.3197 94.8197 29.4903 94.7332 29.7103C94.7314 29.715 94.7295 29.7206 94.7277 29.7252V29.1249H94.2246V32.356H94.8467V30.4309C94.8467 30.1811 94.922 29.9797 95.0708 29.8306C95.2195 29.6814 95.4167 29.6059 95.6575 29.6059C95.8983 29.6059 96.075 29.6786 96.208 29.8203C96.341 29.963 96.4088 30.1569 96.4088 30.3946V32.3551H97.0309V30.5139C97.0309 30.0385 96.9323 29.6684 96.7371 29.4148C96.5409 29.1594 96.235 29.0298 95.8286 29.0298Z" fill="#ffffff"/>
<path d="M71.9643 31.8498H71.876L70.9703 29.1249H70.3203L71.4185 32.3551H72.4125L73.3665 29.1249H72.7537L71.9643 31.8498Z" fill="#ffffff"/>
<path d="M74.2162 28.6653C74.3501 28.6653 74.4515 28.628 74.5175 28.5553C74.5826 28.4835 74.6161 28.3912 74.6161 28.2812C74.6161 28.1712 74.5826 28.0798 74.5175 28.0071C74.4515 27.9344 74.3501 27.8971 74.2162 27.8971C74.0823 27.8971 73.981 27.9344 73.915 28.0071C73.8499 28.0789 73.8164 28.1712 73.8164 28.2812C73.8164 28.3912 73.8499 28.4825 73.915 28.5553C73.981 28.628 74.0823 28.6653 74.2162 28.6653Z" fill="#ffffff"/>
<path d="M73.543 29.6301H74.0302V32.3551H74.6523V29.1249H73.543V29.6301Z" fill="#ffffff"/>
<path d="M76.2656 29.4213C76.1605 29.5332 76.0814 29.6777 76.0284 29.8548V29.1239H75.5254V32.355H76.1475V30.609C76.1475 30.3004 76.2311 30.0618 76.3948 29.8986C76.5594 29.7355 76.7984 29.6534 77.1061 29.6534H77.334V29.0885H77.201C76.7881 29.0885 76.4729 29.2004 76.2646 29.4213H76.2656Z" fill="#ffffff"/>
<path d="M80.5038 29.5406C80.3559 29.3821 80.1728 29.2544 79.9608 29.1593C79.7488 29.0651 79.5033 29.0176 79.2318 29.0176C78.9602 29.0176 78.7148 29.0651 78.5028 29.1593C78.2907 29.2534 78.1085 29.3821 77.9597 29.5406C77.8119 29.699 77.6984 29.8799 77.6222 30.0785C77.5459 30.277 77.5078 30.4812 77.5078 30.6863V30.7935C77.5078 30.9986 77.545 31.2018 77.6194 31.3976C77.6938 31.5943 77.8054 31.7742 77.9514 31.9327C78.0973 32.0911 78.2787 32.2207 78.4907 32.3167C78.7027 32.4128 78.9519 32.4622 79.2318 32.4622C79.5116 32.4622 79.7608 32.4137 79.9728 32.3167C80.1849 32.2207 80.3662 32.0911 80.5131 31.9327C80.6591 31.7733 80.7707 31.5933 80.845 31.3976C80.9194 31.2018 80.9566 30.9976 80.9566 30.7935V30.6863C80.9566 30.4812 80.9185 30.277 80.8423 30.0785C80.766 29.8799 80.6526 29.699 80.5047 29.5406H80.5038ZM79.2318 31.8982C79.0002 31.8982 78.8003 31.8469 78.6367 31.7444C78.473 31.6418 78.3465 31.5029 78.261 31.3295C78.1745 31.1561 78.1299 30.9576 78.1299 30.7403C78.1299 30.5231 78.1745 30.319 78.2638 30.1456C78.3521 29.9722 78.4804 29.8342 78.6459 29.7335C78.8115 29.6338 79.0086 29.5825 79.2318 29.5825C79.4549 29.5825 79.6567 29.6329 79.8204 29.7335C79.9831 29.8333 80.1105 29.9722 80.1997 30.1456C80.2881 30.3199 80.3336 30.5194 80.3336 30.7403C80.3336 30.9613 80.289 31.1561 80.2025 31.3295C80.116 31.5029 79.9896 31.6418 79.8269 31.7444C79.6632 31.846 79.4633 31.8982 79.2327 31.8982H79.2318Z" fill="#ffffff"/>
<path d="M89.4516 29.2069C89.2815 29.0894 89.0667 29.0298 88.8137 29.0298H88.7905C88.5366 29.0298 88.3228 29.0894 88.1545 29.2069C87.9871 29.3244 87.8588 29.4959 87.7742 29.7159C87.7695 29.729 87.7639 29.742 87.7602 29.7551C87.7556 29.742 87.7509 29.729 87.7463 29.7159C87.6654 29.4959 87.5398 29.3244 87.3715 29.2069C87.2032 29.0894 86.9894 29.0298 86.7355 29.0298H86.7123C86.4584 29.0298 86.2455 29.0894 86.08 29.2069C85.9145 29.3244 85.7889 29.495 85.7062 29.715V29.1249H85.2031V32.356H85.8252V30.4253C85.8252 30.168 85.8949 29.9648 86.0316 29.8222C86.1683 29.6796 86.3515 29.6068 86.5765 29.6068C86.8015 29.6068 86.9643 29.6749 87.0851 29.8091C87.207 29.9443 87.2683 30.1391 87.2683 30.3899V32.356H87.8904V30.4253C87.8904 30.168 87.9601 29.9648 88.0968 29.8222C88.2335 29.6796 88.4167 29.6068 88.6417 29.6068C88.8667 29.6068 89.0295 29.6749 89.1503 29.8091C89.2722 29.9443 89.3335 30.1401 89.3335 30.3899V32.356H89.9556V30.5148C89.9556 30.2044 89.9138 29.9359 89.8329 29.7168C89.7501 29.4968 89.6218 29.3253 89.4516 29.2078V29.2069Z" fill="#ffffff"/>
<path d="M92.973 29.245C92.7462 29.094 92.4551 29.0176 92.1064 29.0176C91.8386 29.0176 91.6024 29.0651 91.4035 29.1602C91.2054 29.2544 91.039 29.383 90.9106 29.5424C90.7832 29.7009 90.6865 29.8808 90.6242 30.0775C90.5629 30.2733 90.5312 30.4784 90.5312 30.6863V30.7935C90.5312 30.9976 90.5629 31.2009 90.6242 31.3966C90.6865 31.5933 90.7832 31.7733 90.9106 31.9317C91.039 32.0911 91.2082 32.2207 91.4128 32.3167C91.6173 32.4128 91.8628 32.4622 92.1427 32.4622C92.3947 32.4622 92.6234 32.4193 92.8233 32.3354C93.0242 32.2506 93.1934 32.1266 93.3264 31.9653C93.4594 31.804 93.5486 31.6101 93.5933 31.3882L93.5998 31.3566H93.0121L93.0074 31.3771C92.9777 31.5169 92.8866 31.6409 92.7359 31.7481C92.5844 31.8553 92.3854 31.9094 92.1427 31.9094C91.9 31.9094 91.7187 31.8581 91.5699 31.7565C91.4202 31.6549 91.3086 31.515 91.2379 31.3398C91.1812 31.1999 91.1468 31.0433 91.1347 30.8737H93.6472V30.5912C93.6472 30.3227 93.5914 30.0673 93.4817 29.8305C93.371 29.5928 93.1999 29.3961 92.974 29.245H92.973ZM91.2379 30.1307C91.3086 29.9573 91.4174 29.8193 91.5606 29.7195C91.7038 29.6198 91.887 29.5695 92.1064 29.5695C92.3259 29.5695 92.4951 29.6142 92.6327 29.7018C92.7703 29.7904 92.8745 29.9153 92.9433 30.0738C92.9842 30.1689 93.013 30.2742 93.0298 30.3908H91.1608C91.1784 30.2975 91.2045 30.2108 91.237 30.1297L91.2379 30.1307Z" fill="#ffffff"/>
<path d="M99.6181 29.6059V29.1248H98.5255V28.1609H97.9267V29.1248H97.3809V29.6059H97.9267V31.2456C97.9267 31.5309 97.975 31.7602 98.0699 31.928C98.1657 32.0977 98.3042 32.218 98.4809 32.2879C98.6557 32.3559 98.8649 32.3904 99.1048 32.3904H99.6181V31.8255H99.0341C98.8714 31.8255 98.7449 31.7808 98.6575 31.6931C98.5701 31.6055 98.5255 31.4787 98.5255 31.3156V29.604H99.6181V29.6059Z" fill="#ffffff"/>
<path d="M58.6655 7.99207C53.9865 7.99207 50.1797 11.8086 50.1797 16.5006C50.1797 21.1925 53.9865 25.0081 58.6655 25.0081C63.3445 25.0081 67.1523 21.1916 67.1523 16.5006C67.1523 11.8096 63.3455 7.99207 58.6655 7.99207ZM64.0401 16.5006C64.0401 19.4716 61.629 21.8889 58.6655 21.8889C55.7021 21.8889 53.291 19.4716 53.291 16.5006C53.291 13.5295 55.7021 11.1123 58.6655 11.1123C61.629 11.1123 64.0401 13.5295 64.0401 16.5006Z" fill="#ffffff"/>
<path d="M82.4721 24.5997C82.4581 24.5783 82.4451 24.5568 82.4274 24.5373L77.873 19.1984C77.873 19.1984 77.873 19.1928 77.8749 19.1918C80.1772 18.4414 81.7682 16.2637 81.7682 13.8222C81.7682 10.7104 79.2427 8.17749 76.1379 8.17749H70.6397C69.6847 8.17749 68.9102 8.95404 68.9102 9.91145V24.6855C68.9102 24.7601 68.9706 24.8216 69.0459 24.8216H71.8438C71.9182 24.8216 71.9796 24.761 71.9796 24.6855V11.2576C71.9796 11.2576 71.9815 11.2539 71.9833 11.2539H76.0793C77.475 11.2539 78.6578 12.3483 78.6978 13.7476C78.7387 15.1972 77.5745 16.3895 76.1379 16.3895H75.1839C75.0397 16.3895 74.9003 16.411 74.7673 16.4445C74.0188 16.6356 73.4646 17.3134 73.4646 18.1226C73.4646 18.447 73.5548 18.75 73.7101 19.0091C73.7668 19.1042 73.8319 19.1937 73.9053 19.2757L78.4532 24.6044L78.5992 24.7759C78.6243 24.8048 78.6606 24.8216 78.6996 24.8216H82.3763C82.42 24.8216 82.4553 24.7918 82.4776 24.7545C82.5065 24.7069 82.5027 24.6454 82.473 24.5988L82.4721 24.5997Z" fill="#ffffff"/>
<path d="M48.3431 19.6449L47.5546 18.8544C47.4179 18.7108 47.2264 18.6213 47.0125 18.6213C46.7577 18.6213 46.5336 18.7491 46.3979 18.943C46.397 18.9448 45.8893 19.6766 45.8893 19.6766C44.8832 21.0545 43.2754 21.8879 41.5561 21.8879C38.5927 21.8879 36.1816 19.4706 36.1816 16.4996C36.1816 13.5286 38.5927 11.1113 41.5561 11.1113C43.2754 11.1113 44.8832 11.9447 45.8893 13.3225C45.8893 13.3225 46.397 14.0553 46.3979 14.0562C46.5336 14.2501 46.7577 14.3778 47.0125 14.3778C47.2255 14.3778 47.4179 14.2883 47.5546 14.1448L48.3431 13.3542L49.0266 12.6681C49.0684 12.6262 49.0768 12.5628 49.0498 12.5106C47.5676 9.72318 44.6972 7.99109 41.5571 7.99109C36.8781 7.99109 33.0703 11.8077 33.0703 16.4987C33.0703 21.1897 36.8771 25.0062 41.5571 25.0062C44.6972 25.0062 47.5676 23.2741 49.0498 20.4867C49.0777 20.4345 49.0684 20.3712 49.0266 20.3292L48.3431 19.6431V19.6449Z" fill="#ffffff"/>
<path d="M99.6121 24.6473C99.6121 24.6473 94.4264 9.51904 94.4217 9.50506C94.1818 8.85249 93.5625 8.38451 92.8317 8.37146H90.2857C89.5539 8.38451 88.9347 8.85249 88.6957 9.50506C88.691 9.51904 83.5053 24.6473 83.5053 24.6473C83.4913 24.6874 83.4978 24.7322 83.5229 24.7667C83.548 24.8011 83.588 24.8217 83.6299 24.8217H86.5961C86.6528 24.8217 86.7021 24.7862 86.7207 24.7331L88.2466 20.2807H94.8727L96.3986 24.7331C96.4172 24.7862 96.4665 24.8217 96.5232 24.8217H99.4894C99.5322 24.8217 99.5722 24.8011 99.5963 24.7667C99.6205 24.7322 99.627 24.6874 99.614 24.6473H99.6121ZM89.2992 17.2044L90.6298 13.3226C90.6298 13.3226 91.2965 11.2595 91.2983 11.253C91.3355 11.1411 91.4397 11.0656 91.5578 11.0656C91.6759 11.0656 91.78 11.1421 91.8172 11.253C91.82 11.2605 92.4858 13.3226 92.4858 13.3226L93.8164 17.2044H89.2992Z" fill="#ffffff"/>
<path d="M22.7823 19.465C22.6465 19.3289 22.4587 19.244 22.2513 19.244C21.9696 19.244 21.7287 19.4016 21.5958 19.63C20.7319 21.1132 19.352 21.803 19.3427 21.8077C18.4752 22.2897 17.4784 22.5656 16.4156 22.5656C13.0737 22.5656 10.365 19.85 10.365 16.4996C10.365 13.1491 13.0737 10.4335 16.4156 10.4335C17.4775 10.4335 18.4752 10.7094 19.3427 11.1914C19.352 11.1961 20.7319 11.8859 21.5958 13.3691C21.7287 13.5966 21.9696 13.7551 22.2513 13.7551C22.4587 13.7551 22.6465 13.6712 22.7823 13.5341L29.1499 7.14925C29.2345 7.06442 29.2345 6.92738 29.1499 6.84254L26.047 3.73168C25.9624 3.64685 25.8257 3.64685 25.7411 3.73168L21.7827 7.7002C21.4693 8.01716 21.0351 8.21293 20.5553 8.21293C19.6003 8.21293 18.8257 7.43731 18.8257 6.4799V0.859467C18.8257 0.740141 18.729 0.643188 18.61 0.643188H14.222C14.103 0.643188 14.0063 0.740141 14.0063 0.859467V6.4799C14.0063 7.43731 13.2317 8.21293 12.2768 8.21293C11.797 8.21293 11.3627 8.01623 11.0494 7.7002L7.091 3.73168C7.00639 3.64685 6.8697 3.64685 6.78508 3.73168L3.68216 6.84254C3.59755 6.92738 3.59755 7.06442 3.68216 7.14925L7.64054 11.1178C7.9567 11.4319 8.15196 11.8673 8.15196 12.3483C8.15196 13.3057 7.37833 14.0823 6.42337 14.0823H0.817288C0.698266 14.0823 0.601562 14.1792 0.601562 14.2985V18.6978C0.601562 18.8171 0.698266 18.914 0.817288 18.914H6.42337C7.37833 18.914 8.15196 19.6906 8.15196 20.648C8.15196 21.129 7.95577 21.5644 7.64054 21.8785L3.68216 25.8471C3.59755 25.9319 3.59755 26.0689 3.68216 26.1538L6.78508 29.2646C6.8697 29.3495 7.00639 29.3495 7.091 29.2646L11.0494 25.2961C11.3627 24.9792 11.797 24.7834 12.2768 24.7834C13.2317 24.7834 14.0063 25.559 14.0063 26.5164V32.1368C14.0063 32.2562 14.103 32.3531 14.222 32.3531H18.61C18.729 32.3531 18.8257 32.2562 18.8257 32.1368V26.5164C18.8257 25.559 19.6003 24.7834 20.5553 24.7834C21.0351 24.7834 21.4693 24.9801 21.7827 25.2961L25.7411 29.2646C25.8257 29.3495 25.9624 29.3495 26.047 29.2646L29.1499 26.1538C29.2345 26.0689 29.2345 25.9319 29.1499 25.8471L22.7823 19.4622V19.465Z" fill="#6FD85D"/>
</svg>
